<svg width="160" height="160" viewBox="0 0 160 160" fill="none" xmlns="http://www.w3.org/2000/svg">
  <g filter="url(#shadow)">
    <path d="M94 18C77 28 65 45 59 64L45 78C41 82 39 88 39 94V116L57 98C65 102 74 104 84 103C106 101 124 83 126 61C127 44 116 28 94 18Z" fill="#F8F2E8"/>
    <path d="M84 104C70 104 57 100 47 92L39 116L62 108C69 111 77 112 84 111V104Z" fill="#DDE7D5"/>
    <path d="M98 34C86 42 77 54 72 68" stroke="#7A8B68" stroke-width="8" stroke-linecap="round"/>
    <circle cx="92" cy="62" r="15" fill="#D5E3F2"/>
    <circle cx="92" cy="62" r="8" fill="#F8F2E8"/>
    <path d="M58 86L37 108" stroke="#F19A6C" stroke-width="10" stroke-linecap="round"/>
    <path d="M78 101L72 131" stroke="#7A8B68" stroke-width="10" stroke-linecap="round"/>
    <path d="M92 99L104 126" stroke="#7A8B68" stroke-width="10" stroke-linecap="round"/>
    <path d="M42 112C46 110 51 110 55 112C59 114 62 118 63 123C56 127 48 128 40 126C39 121 40 116 42 112Z" fill="#FFCE8F"/>
  </g>
  <defs>
    <filter id="shadow" x="16" y="8" width="124" height="134" filterUnits="userSpaceOnUse" color-interpolation-filters="sRGB">
      <feFlood flood-opacity="0" result="BackgroundImageFix"/>
      <feColorMatrix in="SourceAlpha" type="matrix" values="0 0 0 0 0 0 0 0 0 0 0 0 0 0 0 0 0 0 127 0" result="hardAlpha"/>
      <feOffset dy="6"/>
      <feGaussianBlur stdDeviation="6"/>
      <feColorMatrix type="matrix" values="0 0 0 0 0.309804 0 0 0 0 0.32549 0 0 0 0 0.247059 0 0 0 0.12 0"/>
      <feBlend mode="normal" in2="BackgroundImageFix" result="effect1_dropShadow"/>
      <feBlend mode="normal" in="SourceGraphic" in2="effect1_dropShadow" result="shape"/>
    </filter>
  </defs>
</svg>
